<svg xmlns="http://www.w3.org/2000/svg" xmlns:xlink="http://www.w3.org/1999/xlink" width="500" zoomAndPan="magnify" viewBox="0 0 375 374.999991" height="500" preserveAspectRatio="xMidYMid meet" version="1.0"><defs><g/></defs><rect x="-37.5" width="450" fill="#ffffff" y="-37.499999" height="449.999989" fill-opacity="1"/><rect x="-37.5" width="450" fill="#ffffff" y="-37.499999" height="449.999989" fill-opacity="1"/><rect x="-37.5" width="450" fill="#ffffff" y="-37.499999" height="449.999989" fill-opacity="1"/><rect x="-37.5" width="450" fill="#6527be" y="-37.499999" height="449.999989" fill-opacity="1"/><g fill="#ffffff" fill-opacity="0.4392"><g transform="translate(98.956215, 296.145452)"><g><path d="M 128.609375 -51.21875 C 128.609375 -42.632812 127.15625 -34.976562 124.25 -28.25 C 121.34375 -21.53125 117.382812 -15.832031 112.375 -11.15625 C 107.375 -6.488281 101.414062 -2.910156 94.5 -0.421875 C 87.582031 2.054688 80.210938 3.296875 72.390625 3.296875 C 63.617188 3.296875 55.703125 1.722656 48.640625 -1.421875 C 41.585938 -4.578125 35.53125 -9.78125 30.46875 -17.03125 L 30.46875 0 L 3.859375 0 L 3.859375 -60.953125 L 30.46875 -60.953125 C 30.46875 -54.847656 31.539062 -49.457031 33.6875 -44.78125 C 35.832031 -40.101562 38.671875 -36.164062 42.203125 -32.96875 C 45.734375 -29.78125 49.832031 -27.347656 54.5 -25.671875 C 59.175781 -24.003906 64.140625 -23.171875 69.390625 -23.171875 C 78.253906 -23.171875 85.40625 -25.222656 90.84375 -29.328125 C 96.28125 -33.429688 99 -39.960938 99 -48.921875 C 99 -53.597656 98.164062 -57.601562 96.5 -60.9375 C 94.832031 -64.28125 92.445312 -67.265625 89.34375 -69.890625 C 86.25 -72.515625 82.457031 -74.800781 77.96875 -76.75 C 73.488281 -78.707031 68.382812 -80.785156 62.65625 -82.984375 C 55.882812 -85.265625 49.113281 -87.835938 42.34375 -90.703125 C 35.570312 -93.566406 29.515625 -97.097656 24.171875 -101.296875 C 18.835938 -105.492188 14.5 -110.664062 11.15625 -116.8125 C 7.820312 -122.96875 6.15625 -130.71875 6.15625 -140.0625 C 6.15625 -148.257812 7.65625 -155.4375 10.65625 -161.59375 C 13.664062 -167.75 17.671875 -172.921875 22.671875 -177.109375 C 27.679688 -181.304688 33.5 -184.476562 40.125 -186.625 C 46.757812 -188.769531 53.796875 -189.84375 61.234375 -189.84375 C 69.816406 -189.84375 77.179688 -188.03125 83.328125 -184.40625 C 89.484375 -180.78125 94.234375 -175.96875 97.578125 -169.96875 L 97.578125 -186.703125 L 124.1875 -186.703125 L 124.1875 -128.609375 L 97.578125 -128.609375 C 97.578125 -139.578125 94.691406 -148.140625 88.921875 -154.296875 C 83.148438 -160.453125 75.398438 -163.53125 65.671875 -163.53125 C 57.085938 -163.53125 49.957031 -161.523438 44.28125 -157.515625 C 38.601562 -153.503906 35.765625 -147.878906 35.765625 -140.640625 C 35.765625 -136.921875 36.503906 -133.75 37.984375 -131.125 C 39.460938 -128.5 41.609375 -126.113281 44.421875 -123.96875 C 47.234375 -121.820312 50.785156 -119.816406 55.078125 -117.953125 C 59.367188 -116.097656 64.328125 -114.070312 69.953125 -111.875 C 77.015625 -109.394531 84.023438 -106.582031 90.984375 -103.4375 C 97.953125 -100.289062 104.203125 -96.425781 109.734375 -91.84375 C 115.265625 -87.269531 119.789062 -81.710938 123.3125 -75.171875 C 126.84375 -68.640625 128.609375 -60.65625 128.609375 -51.21875 Z M 128.609375 -51.21875 "/></g></g></g><g fill="#ffffff" fill-opacity="1"><g transform="translate(93.29679, 278.727527)"><g><path d="M 128.609375 -51.21875 C 128.609375 -42.632812 127.15625 -34.976562 124.25 -28.25 C 121.34375 -21.53125 117.382812 -15.832031 112.375 -11.15625 C 107.375 -6.488281 101.414062 -2.910156 94.5 -0.421875 C 87.582031 2.054688 80.210938 3.296875 72.390625 3.296875 C 63.617188 3.296875 55.703125 1.722656 48.640625 -1.421875 C 41.585938 -4.578125 35.53125 -9.78125 30.46875 -17.03125 L 30.46875 0 L 3.859375 0 L 3.859375 -60.953125 L 30.46875 -60.953125 C 30.46875 -54.847656 31.539062 -49.457031 33.6875 -44.78125 C 35.832031 -40.101562 38.671875 -36.164062 42.203125 -32.96875 C 45.734375 -29.78125 49.832031 -27.347656 54.5 -25.671875 C 59.175781 -24.003906 64.140625 -23.171875 69.390625 -23.171875 C 78.253906 -23.171875 85.40625 -25.222656 90.84375 -29.328125 C 96.28125 -33.429688 99 -39.960938 99 -48.921875 C 99 -53.597656 98.164062 -57.601562 96.5 -60.9375 C 94.832031 -64.28125 92.445312 -67.265625 89.34375 -69.890625 C 86.25 -72.515625 82.457031 -74.800781 77.96875 -76.75 C 73.488281 -78.707031 68.382812 -80.785156 62.65625 -82.984375 C 55.882812 -85.265625 49.113281 -87.835938 42.34375 -90.703125 C 35.570312 -93.566406 29.515625 -97.097656 24.171875 -101.296875 C 18.835938 -105.492188 14.5 -110.664062 11.15625 -116.8125 C 7.820312 -122.96875 6.15625 -130.71875 6.15625 -140.0625 C 6.15625 -148.257812 7.65625 -155.4375 10.65625 -161.59375 C 13.664062 -167.75 17.671875 -172.921875 22.671875 -177.109375 C 27.679688 -181.304688 33.5 -184.476562 40.125 -186.625 C 46.757812 -188.769531 53.796875 -189.84375 61.234375 -189.84375 C 69.816406 -189.84375 77.179688 -188.03125 83.328125 -184.40625 C 89.484375 -180.78125 94.234375 -175.96875 97.578125 -169.96875 L 97.578125 -186.703125 L 124.1875 -186.703125 L 124.1875 -128.609375 L 97.578125 -128.609375 C 97.578125 -139.578125 94.691406 -148.140625 88.921875 -154.296875 C 83.148438 -160.453125 75.398438 -163.53125 65.671875 -163.53125 C 57.085938 -163.53125 49.957031 -161.523438 44.28125 -157.515625 C 38.601562 -153.503906 35.765625 -147.878906 35.765625 -140.640625 C 35.765625 -136.921875 36.503906 -133.75 37.984375 -131.125 C 39.460938 -128.5 41.609375 -126.113281 44.421875 -123.96875 C 47.234375 -121.820312 50.785156 -119.816406 55.078125 -117.953125 C 59.367188 -116.097656 64.328125 -114.070312 69.953125 -111.875 C 77.015625 -109.394531 84.023438 -106.582031 90.984375 -103.4375 C 97.953125 -100.289062 104.203125 -96.425781 109.734375 -91.84375 C 115.265625 -87.269531 119.789062 -81.710938 123.3125 -75.171875 C 126.84375 -68.640625 128.609375 -60.65625 128.609375 -51.21875 Z M 128.609375 -51.21875 "/></g></g></g><g fill="#ffffff" fill-opacity="1"><g transform="translate(248.163531, 104.21654)"><g><path d="M 31.21875 15.609375 L 31.21875 26.015625 L 5.203125 26.015625 L 5.203125 31.21875 L 0 31.21875 L 0 10.40625 L 5.203125 10.40625 L 5.203125 15.609375 L 20.8125 15.609375 L 20.8125 10.40625 L 26.015625 10.40625 L 26.015625 15.609375 Z M 31.21875 15.609375 "/></g></g></g><g fill="#00bf63" fill-opacity="1"><g transform="translate(248.163531, 145.849068)"><g><path d="M 31.21875 10.40625 L 31.21875 31.21875 L 26.015625 31.21875 L 26.015625 36.421875 L 5.203125 36.421875 L 5.203125 31.21875 L 0 31.21875 L 0 10.40625 L 5.203125 10.40625 L 5.203125 5.203125 L 26.015625 5.203125 L 26.015625 10.40625 Z M 26.015625 15.609375 L 15.609375 15.609375 L 15.609375 20.8125 L 10.40625 20.8125 L 10.40625 15.609375 L 5.203125 15.609375 L 5.203125 26.015625 L 15.609375 26.015625 L 15.609375 20.8125 L 20.8125 20.8125 L 20.8125 26.015625 L 26.015625 26.015625 Z M 26.015625 15.609375 "/></g></g></g><g fill="#ffffff" fill-opacity="1"><g transform="translate(248.163531, 187.481597)"><g><path d="M 31.21875 15.609375 L 31.21875 26.015625 L 5.203125 26.015625 L 5.203125 31.21875 L 0 31.21875 L 0 10.40625 L 5.203125 10.40625 L 5.203125 15.609375 L 20.8125 15.609375 L 20.8125 10.40625 L 26.015625 10.40625 L 26.015625 15.609375 Z M 31.21875 15.609375 "/></g></g><g transform="translate(248.163531, 229.114125)"><g><path d="M 31.21875 10.40625 L 31.21875 31.21875 L 26.015625 31.21875 L 26.015625 36.421875 L 5.203125 36.421875 L 5.203125 31.21875 L 0 31.21875 L 0 10.40625 L 5.203125 10.40625 L 5.203125 5.203125 L 26.015625 5.203125 L 26.015625 10.40625 Z M 26.015625 15.609375 L 15.609375 15.609375 L 15.609375 20.8125 L 10.40625 20.8125 L 10.40625 15.609375 L 5.203125 15.609375 L 5.203125 26.015625 L 15.609375 26.015625 L 15.609375 20.8125 L 20.8125 20.8125 L 20.8125 26.015625 L 26.015625 26.015625 Z M 26.015625 15.609375 "/></g></g></g></svg>